%TF.GenerationSoftware,Altium Limited,Altium Designer,26.9.1 (10)*%
G04 Layer_Physical_Order=2*
G04 Layer_Color=16711680*
G04 Board_Origin=0|0*
%FSLAX45Y45*%
%MOMM*%
%TF.SameCoordinates,52987471-3BCB-4453-B382-66B41E2B28C4*%
%TF.FilePolarity,Positive*%
%TF.FileFunction,Copper,L2,Bot,Signal*%
%TF.Part,Single*%
G01*
G75*
%TA.AperFunction,ComponentPad*%
%ADD25R,2.15000X2.15000*%
%ADD26C,2.15000*%
%ADD27R,1.40000X1.40000*%
%ADD28C,1.40000*%
%ADD29C,1.35000*%
%ADD30R,1.35000X1.35000*%
%TA.AperFunction,ViaPad*%
%ADD31C,1.27000*%
G36*
X12763500Y5651500D02*
X7340600D01*
Y9410700D01*
X12763500D01*
Y5651500D01*
D02*
G37*
%LPC*%
G36*
X9478200Y8767000D02*
X9292400D01*
Y8581200D01*
X9478200D01*
Y8767000D01*
D02*
G37*
G36*
X8889531D02*
X8865069D01*
X8841442Y8760669D01*
X8820258Y8748438D01*
X8802962Y8731142D01*
X8790731Y8709958D01*
X8784400Y8686331D01*
Y8661869D01*
X8790731Y8638242D01*
X8802962Y8617058D01*
X8820258Y8599762D01*
X8841442Y8587531D01*
X8865069Y8581200D01*
X8889531D01*
X8913158Y8587531D01*
X8934342Y8599762D01*
X8951638Y8617058D01*
X8963869Y8638242D01*
X8970200Y8661869D01*
Y8686331D01*
X8963869Y8709958D01*
X8951638Y8731142D01*
X8934342Y8748438D01*
X8913158Y8760669D01*
X8889531Y8767000D01*
D02*
G37*
G36*
X9143531Y8767000D02*
X9119069D01*
X9095442Y8760669D01*
X9074258Y8748438D01*
X9056962Y8731142D01*
X9044731Y8709958D01*
X9038400Y8686330D01*
Y8661869D01*
X9044731Y8638242D01*
X9056962Y8617058D01*
X9074258Y8599761D01*
X9095442Y8587531D01*
X9119069Y8581200D01*
X9143531D01*
X9167158Y8587531D01*
X9188342Y8599761D01*
X9205638Y8617058D01*
X9217869Y8638242D01*
X9224200Y8661869D01*
Y8686330D01*
X9217869Y8709958D01*
X9205638Y8731142D01*
X9188342Y8748438D01*
X9167158Y8760669D01*
X9143531Y8767000D01*
D02*
G37*
G36*
X8947300Y7550300D02*
X8756500D01*
Y7359500D01*
X8947300D01*
Y7550300D01*
D02*
G37*
G36*
X11867700Y7613200D02*
X11601900D01*
Y7347400D01*
X11867700D01*
Y7613200D01*
D02*
G37*
G36*
X7802597Y7600500D02*
X7767603D01*
X7733802Y7591443D01*
X7703497Y7573946D01*
X7678754Y7549203D01*
X7661257Y7518898D01*
X7652200Y7485097D01*
Y7450103D01*
X7661257Y7416302D01*
X7678754Y7385997D01*
X7703497Y7361254D01*
X7733802Y7343757D01*
X7767603Y7334700D01*
X7802597D01*
X7836398Y7343757D01*
X7866703Y7361254D01*
X7891446Y7385997D01*
X7908943Y7416302D01*
X7918000Y7450103D01*
Y7485097D01*
X7908943Y7518898D01*
X7891446Y7549203D01*
X7866703Y7573946D01*
X7836398Y7591443D01*
X7802597Y7600500D01*
D02*
G37*
G36*
X11752297Y7217200D02*
X11717303D01*
X11683502Y7208143D01*
X11653197Y7190646D01*
X11628454Y7165902D01*
X11610957Y7135597D01*
X11601900Y7101796D01*
Y7066803D01*
X11610957Y7033002D01*
X11628454Y7002697D01*
X11653197Y6977953D01*
X11683502Y6960457D01*
X11717303Y6951400D01*
X11752297D01*
X11786098Y6960457D01*
X11816403Y6977953D01*
X11841146Y7002697D01*
X11858643Y7033002D01*
X11867700Y7066803D01*
Y7101796D01*
X11858643Y7135597D01*
X11841146Y7165902D01*
X11816403Y7190646D01*
X11786098Y7208143D01*
X11752297Y7217200D01*
D02*
G37*
%LPD*%
D25*
X7785100Y7071600D02*
D03*
X11734800Y7480300D02*
D03*
D26*
X7785100Y7467600D02*
D03*
X11734800Y7084300D02*
D03*
D27*
X8851900Y7454900D02*
D03*
D28*
Y7104900D02*
D03*
D29*
X8877300Y8674100D02*
D03*
X9131300Y8674100D02*
D03*
D30*
X9385300Y8674100D02*
D03*
D31*
X11036300Y6007100D02*
D03*
X10718800D02*
D03*
X10858500Y7772400D02*
D03*
X10312400Y7010400D02*
D03*
X9931400Y7378700D02*
D03*
X9601200Y7835900D02*
D03*
%TF.MD5,6ce46a99086d5b2f9e732de6ea1d260a*%
M02*
