%TF.GenerationSoftware,Altium Limited,Altium Designer,26.9.1 (10)*%
G04 Layer_Color=65535*
G04 Board_Origin=0|0*
%FSLAX45Y45*%
%MOMM*%
%TF.SameCoordinates,52987471-3BCB-4453-B382-66B41E2B28C4*%
%TF.FilePolarity,Positive*%
%TF.FileFunction,Legend,Top*%
%TF.Part,Single*%
G01*
G75*
%TA.AperFunction,NonConductor*%
%ADD32C,0.25000*%
%ADD33C,0.20000*%
%ADD34C,0.60000*%
%ADD35C,0.25400*%
D32*
X7797600Y6811600D02*
G03*
X7797600Y6811600I-12500J0D01*
G01*
X12356900Y7603300D02*
G03*
X12356900Y7603300I-12500J0D01*
G01*
X9855000Y8675370D02*
G03*
X9855000Y8675370I-12500J0D01*
G01*
X11747300Y7740300D02*
G03*
X11747300Y7740300I-12500J0D01*
G01*
X11048800Y6801200D02*
G03*
X11048800Y6801200I-12500J0D01*
G01*
X10845600Y8086500D02*
G03*
X10845600Y8086500I-12500J0D01*
G01*
X10464600Y8611500D02*
G03*
X10464600Y8611500I-12500J0D01*
G01*
X10239900Y7182400D02*
G03*
X10239900Y7182400I-12500J0D01*
G01*
D33*
X9251900Y7279900D02*
G03*
X9251900Y7279900I-400000J0D01*
G01*
X8265100Y6876600D02*
Y7662600D01*
X7415100Y7001600D02*
Y7537600D01*
Y7001600D02*
X7585100D01*
Y6876600D02*
Y7001600D01*
Y6876600D02*
X8265100D01*
X7415100Y7537600D02*
X7585100D01*
Y7662600D01*
X8265100D01*
X10918100Y8675894D02*
Y8877107D01*
X10748100Y8675894D02*
Y8877107D01*
X12465900Y7503300D02*
X12483900D01*
X12204900D02*
X12222900D01*
X12204900Y7053300D02*
Y7503300D01*
X12465900Y7053300D02*
X12483900D01*
X12204900D02*
X12222900D01*
X12483900D02*
Y7503300D01*
X8788400Y7787900D02*
X8915400D01*
X8851900Y7724400D02*
Y7851400D01*
X8475980Y9207500D02*
X9786620D01*
X8475980Y8003540D02*
Y9207500D01*
Y8003540D02*
X9786620D01*
Y9207500D01*
X11254800Y6889300D02*
Y7675300D01*
X12104800Y7014300D02*
Y7550300D01*
X11934800D02*
X12104800D01*
X11934800D02*
Y7675300D01*
X11254800D02*
X11934800D01*
Y7014300D02*
X12104800D01*
X11934800Y6889300D02*
Y7014300D01*
X11254800Y6889300D02*
X11934800D01*
X10199807Y7320764D02*
Y7601977D01*
X10018593Y7320764D02*
Y7601977D01*
X10567400Y6352700D02*
Y6372700D01*
X10692400Y6352700D02*
Y6372700D01*
X10544442Y6831110D02*
X10835062D01*
X10544442Y6605490D02*
X10835062D01*
X11296300Y6799700D02*
X11306300D01*
X11296300Y6129700D02*
Y6799700D01*
Y6129700D02*
X11306300D01*
X10659600Y7855400D02*
X10879600D01*
X10659600Y8070400D02*
X10879600D01*
X9314533Y7750600D02*
X9489533D01*
X9314000Y7920900D02*
X9489000D01*
X10918100Y8274000D02*
Y8424000D01*
X10748100Y8274000D02*
Y8424000D01*
X10367100Y8274000D02*
Y8424000D01*
X10537100Y8274000D02*
Y8424000D01*
Y8686993D02*
Y8888206D01*
X10367100Y8686993D02*
Y8888206D01*
X10279776Y8063100D02*
X10472024D01*
X10279776Y7888100D02*
X10472024D01*
X10752900Y7294900D02*
Y7614900D01*
X10252900Y7294900D02*
Y7614900D01*
X10752900D01*
X10252900Y7294900D02*
X10752900D01*
D34*
X10382900Y7394900D02*
G03*
X10382900Y7394900I-30000J0D01*
G01*
D35*
X10845833Y7531075D02*
Y7404117D01*
X10871225Y7378725D01*
X10922008D01*
X10947400Y7404117D01*
Y7531075D01*
X10998184Y7378725D02*
X11048967D01*
X11023576D01*
Y7531075D01*
X10998184Y7505683D01*
X8407375Y8496341D02*
X8255025D01*
Y8572517D01*
X8280417Y8597908D01*
X8331200D01*
X8356592Y8572517D01*
Y8496341D01*
Y8547125D02*
X8407375Y8597908D01*
X8255025Y8750259D02*
X8280417Y8699475D01*
X8331200Y8648692D01*
X8381983D01*
X8407375Y8674084D01*
Y8724867D01*
X8381983Y8750259D01*
X8356592D01*
X8331200Y8724867D01*
Y8648692D01*
X11137875Y8636041D02*
X10985525D01*
Y8712217D01*
X11010917Y8737608D01*
X11061700D01*
X11087092Y8712217D01*
Y8636041D01*
Y8686825D02*
X11137875Y8737608D01*
X10985525Y8889959D02*
Y8788392D01*
X11061700D01*
X11036308Y8839175D01*
Y8864567D01*
X11061700Y8889959D01*
X11112483D01*
X11137875Y8864567D01*
Y8813784D01*
X11112483Y8788392D01*
X10299675Y8648741D02*
X10147325D01*
Y8724917D01*
X10172717Y8750308D01*
X10223500D01*
X10248892Y8724917D01*
Y8648741D01*
Y8699525D02*
X10299675Y8750308D01*
Y8877267D02*
X10147325D01*
X10223500Y8801092D01*
Y8902659D01*
X10426675Y6223041D02*
X10274325D01*
Y6299217D01*
X10299717Y6324608D01*
X10350500D01*
X10375892Y6299217D01*
Y6223041D01*
Y6273825D02*
X10426675Y6324608D01*
X10299717Y6375392D02*
X10274325Y6400784D01*
Y6451567D01*
X10299717Y6476959D01*
X10325108D01*
X10350500Y6451567D01*
Y6426175D01*
Y6451567D01*
X10375892Y6476959D01*
X10401283D01*
X10426675Y6451567D01*
Y6400784D01*
X10401283Y6375392D01*
X10553741Y6896125D02*
Y7048475D01*
X10629917D01*
X10655308Y7023083D01*
Y6972300D01*
X10629917Y6946908D01*
X10553741D01*
X10604525D02*
X10655308Y6896125D01*
X10807659D02*
X10706092D01*
X10807659Y6997692D01*
Y7023083D01*
X10782267Y7048475D01*
X10731484D01*
X10706092Y7023083D01*
X10223475Y7886733D02*
X10071125D01*
Y7962908D01*
X10096517Y7988300D01*
X10147300D01*
X10172692Y7962908D01*
Y7886733D01*
Y7937517D02*
X10223475Y7988300D01*
Y8039084D02*
Y8089867D01*
Y8064476D01*
X10071125D01*
X10096517Y8039084D01*
X12153917Y6489700D02*
X12255483D01*
X12280875Y6515092D01*
Y6565875D01*
X12255483Y6591267D01*
X12153917D01*
X12128525Y6565875D01*
Y6515092D01*
X12179308Y6540483D02*
X12128525Y6489700D01*
Y6515092D02*
X12153917Y6489700D01*
X12128525Y6438916D02*
Y6388133D01*
Y6413524D01*
X12280875D01*
X12255483Y6438916D01*
X11607541Y7803025D02*
Y7955375D01*
X11683717D01*
X11709108Y7929983D01*
Y7879200D01*
X11683717Y7853808D01*
X11607541D01*
X11861459Y7803025D02*
X11759892D01*
X11861459Y7904592D01*
Y7929983D01*
X11836067Y7955375D01*
X11785284D01*
X11759892Y7929983D01*
X7734333Y7734325D02*
Y7886675D01*
X7810508D01*
X7835900Y7861283D01*
Y7810500D01*
X7810508Y7785108D01*
X7734333D01*
X7886684Y7734325D02*
X7937467D01*
X7912076D01*
Y7886675D01*
X7886684Y7861283D01*
X10972825Y8216941D02*
X11125175D01*
Y8293117D01*
X11099783Y8318508D01*
X10998217D01*
X10972825Y8293117D01*
Y8216941D01*
X10998217Y8369292D02*
X10972825Y8394684D01*
Y8445467D01*
X10998217Y8470859D01*
X11023608D01*
X11049000Y8445467D01*
Y8420075D01*
Y8445467D01*
X11074392Y8470859D01*
X11099783D01*
X11125175Y8445467D01*
Y8394684D01*
X11099783Y8369292D01*
X10160025Y8229641D02*
X10312375D01*
Y8305817D01*
X10286983Y8331208D01*
X10185417D01*
X10160025Y8305817D01*
Y8229641D01*
X10312375Y8483559D02*
Y8381992D01*
X10210808Y8483559D01*
X10185417D01*
X10160025Y8458167D01*
Y8407384D01*
X10185417Y8381992D01*
X12687275Y7404067D02*
X12534925D01*
Y7327892D01*
X12560317Y7302500D01*
X12661883D01*
X12687275Y7327892D01*
Y7404067D01*
X12534925Y7251716D02*
Y7200933D01*
Y7226324D01*
X12687275D01*
X12661883Y7251716D01*
X9401509Y7670783D02*
X9376117Y7696175D01*
X9325333D01*
X9299941Y7670783D01*
Y7569217D01*
X9325333Y7543825D01*
X9376117D01*
X9401509Y7569217D01*
X9528467Y7543825D02*
Y7696175D01*
X9452292Y7620000D01*
X9553859D01*
X9702817Y7416808D02*
X9677425Y7391417D01*
Y7340633D01*
X9702817Y7315241D01*
X9804383D01*
X9829775Y7340633D01*
Y7391417D01*
X9804383Y7416808D01*
X9702817Y7467592D02*
X9677425Y7492984D01*
Y7543767D01*
X9702817Y7569159D01*
X9728208D01*
X9753600Y7543767D01*
Y7518375D01*
Y7543767D01*
X9778992Y7569159D01*
X9804383D01*
X9829775Y7543767D01*
Y7492984D01*
X9804383Y7467592D01*
X10972817Y7937508D02*
X10947425Y7912117D01*
Y7861333D01*
X10972817Y7835941D01*
X11074383D01*
X11099775Y7861333D01*
Y7912117D01*
X11074383Y7937508D01*
X11099775Y8089859D02*
Y7988292D01*
X10998208Y8089859D01*
X10972817D01*
X10947425Y8064467D01*
Y8013684D01*
X10972817Y7988292D01*
X8839200Y6794483D02*
X8813808Y6819875D01*
X8763025D01*
X8737633Y6794483D01*
Y6692917D01*
X8763025Y6667525D01*
X8813808D01*
X8839200Y6692917D01*
X8889984Y6667525D02*
X8940767D01*
X8915376D01*
Y6819875D01*
X8889984Y6794483D01*
%TF.MD5,dd957a2f1c984d4672803d6ae7dab0e4*%
M02*
